solid OpenSCAD_Model
  facet normal 0.634387 0.773016 -0
    outer loop
      vertex 4.41942 4.41942 10
      vertex 3.47231 5.19668 20
      vertex 4.41942 4.41942 20
    endloop
  endfacet
  facet normal 0.634387 0.773016 0
    outer loop
      vertex 3.47231 5.19668 20
      vertex 4.41942 4.41942 10
      vertex 3.47231 5.19668 10
    endloop
  endfacet
  facet normal 0.995185 -0.0980159 0
    outer loop
      vertex 6.12991 -1.21931 20
      vertex 6.25 0 10
      vertex 6.25 0 20
    endloop
  endfacet
  facet normal 0.995185 -0.0980159 0
    outer loop
      vertex 6.25 0 10
      vertex 6.12991 -1.21931 20
      vertex 6.12991 -1.21931 10
    endloop
  endfacet
  facet normal -0.290283 -0.956941 0
    outer loop
      vertex -2.39177 -5.77425 10
      vertex -1.21931 -6.12991 20
      vertex -2.39177 -5.77425 20
    endloop
  endfacet
  facet normal -0.290283 -0.956941 -0
    outer loop
      vertex -1.21931 -6.12991 20
      vertex -2.39177 -5.77425 10
      vertex -1.21931 -6.12991 10
    endloop
  endfacet
  facet normal 0.773016 0.634387 0
    outer loop
      vertex 5.19668 3.47231 20
      vertex 4.41942 4.41942 10
      vertex 4.41942 4.41942 20
    endloop
  endfacet
  facet normal 0.773016 0.634387 0
    outer loop
      vertex 4.41942 4.41942 10
      vertex 5.19668 3.47231 20
      vertex 5.19668 3.47231 10
    endloop
  endfacet
  facet normal -0.290283 0.956941 0
    outer loop
      vertex -1.21931 6.12991 10
      vertex -2.39177 5.77425 20
      vertex -1.21931 6.12991 20
    endloop
  endfacet
  facet normal -0.290283 0.956941 0
    outer loop
      vertex -2.39177 5.77425 20
      vertex -1.21931 6.12991 10
      vertex -2.39177 5.77425 10
    endloop
  endfacet
  facet normal -0.881918 0.471403 0
    outer loop
      vertex -5.77425 2.39177 10
      vertex -5.19668 3.47231 20
      vertex -5.19668 3.47231 10
    endloop
  endfacet
  facet normal -0.881918 0.471403 0
    outer loop
      vertex -5.19668 3.47231 20
      vertex -5.77425 2.39177 10
      vertex -5.77425 2.39177 20
    endloop
  endfacet
  facet normal 0.881918 0.471403 0
    outer loop
      vertex 5.77425 2.39177 20
      vertex 5.19668 3.47231 10
      vertex 5.19668 3.47231 20
    endloop
  endfacet
  facet normal 0.881918 0.471403 0
    outer loop
      vertex 5.19668 3.47231 10
      vertex 5.77425 2.39177 20
      vertex 5.77425 2.39177 10
    endloop
  endfacet
  facet normal 0.471403 0.881918 -0
    outer loop
      vertex 3.47231 5.19668 10
      vertex 2.39177 5.77425 20
      vertex 3.47231 5.19668 20
    endloop
  endfacet
  facet normal 0.471403 0.881918 0
    outer loop
      vertex 2.39177 5.77425 20
      vertex 3.47231 5.19668 10
      vertex 2.39177 5.77425 10
    endloop
  endfacet
  facet normal 0.0980159 0.995185 -0
    outer loop
      vertex 1.21931 6.12991 10
      vertex 0 6.25 20
      vertex 1.21931 6.12991 20
    endloop
  endfacet
  facet normal 0.0980159 0.995185 0
    outer loop
      vertex 0 6.25 20
      vertex 1.21931 6.12991 10
      vertex 0 6.25 10
    endloop
  endfacet
  facet normal -0.995185 0.0980159 0
    outer loop
      vertex -6.25 0 10
      vertex -6.12991 1.21931 20
      vertex -6.12991 1.21931 10
    endloop
  endfacet
  facet normal -0.995185 0.0980159 0
    outer loop
      vertex -6.12991 1.21931 20
      vertex -6.25 0 10
      vertex -6.25 0 20
    endloop
  endfacet
  facet normal -0.773016 0.634387 0
    outer loop
      vertex -5.19668 3.47231 10
      vertex -4.41942 4.41942 20
      vertex -4.41942 4.41942 10
    endloop
  endfacet
  facet normal -0.773016 0.634387 0
    outer loop
      vertex -4.41942 4.41942 20
      vertex -5.19668 3.47231 10
      vertex -5.19668 3.47231 20
    endloop
  endfacet
  facet normal -0.471403 0.881918 0
    outer loop
      vertex -2.39177 5.77425 10
      vertex -3.47231 5.19668 20
      vertex -2.39177 5.77425 20
    endloop
  endfacet
  facet normal -0.471403 0.881918 0
    outer loop
      vertex -3.47231 5.19668 20
      vertex -2.39177 5.77425 10
      vertex -3.47231 5.19668 10
    endloop
  endfacet
  facet normal -0.0980159 0.995185 0
    outer loop
      vertex 0 6.25 10
      vertex -1.21931 6.12991 20
      vertex 0 6.25 20
    endloop
  endfacet
  facet normal -0.0980159 0.995185 0
    outer loop
      vertex -1.21931 6.12991 20
      vertex 0 6.25 10
      vertex -1.21931 6.12991 10
    endloop
  endfacet
  facet normal -0.634387 0.773016 0
    outer loop
      vertex -3.47231 5.19668 10
      vertex -4.41942 4.41942 20
      vertex -3.47231 5.19668 20
    endloop
  endfacet
  facet normal -0.634387 0.773016 0
    outer loop
      vertex -4.41942 4.41942 20
      vertex -3.47231 5.19668 10
      vertex -4.41942 4.41942 10
    endloop
  endfacet
  facet normal 0.995185 0.0980159 0
    outer loop
      vertex 6.25 0 20
      vertex 6.12991 1.21931 10
      vertex 6.12991 1.21931 20
    endloop
  endfacet
  facet normal 0.995185 0.0980159 0
    outer loop
      vertex 6.12991 1.21931 10
      vertex 6.25 0 20
      vertex 6.25 0 10
    endloop
  endfacet
  facet normal 0.0980159 -0.995185 0
    outer loop
      vertex 0 -6.25 10
      vertex 1.21931 -6.12991 20
      vertex 0 -6.25 20
    endloop
  endfacet
  facet normal 0.0980159 -0.995185 0
    outer loop
      vertex 1.21931 -6.12991 20
      vertex 0 -6.25 10
      vertex 1.21931 -6.12991 10
    endloop
  endfacet
  facet normal 0.956941 -0.290283 0
    outer loop
      vertex 5.77425 -2.39177 20
      vertex 6.12991 -1.21931 10
      vertex 6.12991 -1.21931 20
    endloop
  endfacet
  facet normal 0.956941 -0.290283 0
    outer loop
      vertex 6.12991 -1.21931 10
      vertex 5.77425 -2.39177 20
      vertex 5.77425 -2.39177 10
    endloop
  endfacet
  facet normal 0.290283 -0.956941 0
    outer loop
      vertex 1.21931 -6.12991 10
      vertex 2.39177 -5.77425 20
      vertex 1.21931 -6.12991 20
    endloop
  endfacet
  facet normal 0.290283 -0.956941 0
    outer loop
      vertex 2.39177 -5.77425 20
      vertex 1.21931 -6.12991 10
      vertex 2.39177 -5.77425 10
    endloop
  endfacet
  facet normal 0.471403 -0.881918 0
    outer loop
      vertex 2.39177 -5.77425 10
      vertex 3.47231 -5.19668 20
      vertex 2.39177 -5.77425 20
    endloop
  endfacet
  facet normal 0.471403 -0.881918 0
    outer loop
      vertex 3.47231 -5.19668 20
      vertex 2.39177 -5.77425 10
      vertex 3.47231 -5.19668 10
    endloop
  endfacet
  facet normal -0.0980159 -0.995185 0
    outer loop
      vertex -1.21931 -6.12991 10
      vertex 0 -6.25 20
      vertex -1.21931 -6.12991 20
    endloop
  endfacet
  facet normal -0.0980159 -0.995185 -0
    outer loop
      vertex 0 -6.25 20
      vertex -1.21931 -6.12991 10
      vertex 0 -6.25 10
    endloop
  endfacet
  facet normal -0.634387 -0.773016 0
    outer loop
      vertex -4.41942 -4.41942 10
      vertex -3.47231 -5.19668 20
      vertex -4.41942 -4.41942 20
    endloop
  endfacet
  facet normal -0.634387 -0.773016 -0
    outer loop
      vertex -3.47231 -5.19668 20
      vertex -4.41942 -4.41942 10
      vertex -3.47231 -5.19668 10
    endloop
  endfacet
  facet normal -0.881918 -0.471403 0
    outer loop
      vertex -5.19668 -3.47231 10
      vertex -5.77425 -2.39177 20
      vertex -5.77425 -2.39177 10
    endloop
  endfacet
  facet normal -0.881918 -0.471403 0
    outer loop
      vertex -5.77425 -2.39177 20
      vertex -5.19668 -3.47231 10
      vertex -5.19668 -3.47231 20
    endloop
  endfacet
  facet normal -0.995185 -0.0980159 0
    outer loop
      vertex -6.12991 -1.21931 10
      vertex -6.25 0 20
      vertex -6.25 0 10
    endloop
  endfacet
  facet normal -0.995185 -0.0980159 0
    outer loop
      vertex -6.25 0 20
      vertex -6.12991 -1.21931 10
      vertex -6.12991 -1.21931 20
    endloop
  endfacet
  facet normal 0 0 -1
    outer loop
      vertex 4 0 0
      vertex 8 0 0
      vertex 7.84628 -1.56072 0
    endloop
  endfacet
  facet normal 0 0 -1
    outer loop
      vertex 3.92314 -0.780361 0
      vertex 7.84628 -1.56072 0
      vertex 7.39104 -3.06147 0
    endloop
  endfacet
  facet normal 0 0 -1
    outer loop
      vertex 8 0 0
      vertex 4 0 0
      vertex 7.84628 1.56072 0
    endloop
  endfacet
  facet normal 0 0 -1
    outer loop
      vertex 3.69552 -1.53073 0
      vertex 7.39104 -3.06147 0
      vertex 6.65176 -4.44456 0
    endloop
  endfacet
  facet normal 0 0 -1
    outer loop
      vertex 3.92314 0.780361 0
      vertex 7.84628 1.56072 0
      vertex 4 0 0
    endloop
  endfacet
  facet normal 0 0 -1
    outer loop
      vertex 3.32588 -2.22228 0
      vertex 6.65176 -4.44456 0
      vertex 5.65685 -5.65685 0
    endloop
  endfacet
  facet normal -0 0 -1
    outer loop
      vertex 7.84628 1.56072 0
      vertex 3.92314 0.780361 0
      vertex 7.39104 3.06147 0
    endloop
  endfacet
  facet normal 0 0 -1
    outer loop
      vertex 2.82843 -2.82843 0
      vertex 5.65685 -5.65685 0
      vertex 4.44456 -6.65176 0
    endloop
  endfacet
  facet normal 0 0 -1
    outer loop
      vertex 3.69552 1.53073 0
      vertex 7.39104 3.06147 0
      vertex 3.92314 0.780361 0
    endloop
  endfacet
  facet normal -0 0 -1
    outer loop
      vertex 7.39104 3.06147 0
      vertex 3.69552 1.53073 0
      vertex 6.65176 4.44456 0
    endloop
  endfacet
  facet normal 0 0 -1
    outer loop
      vertex 7.84628 -1.56072 0
      vertex 3.92314 -0.780361 0
      vertex 4 0 0
    endloop
  endfacet
  facet normal 0 0 -1
    outer loop
      vertex 7.39104 -3.06147 0
      vertex 3.69552 -1.53073 0
      vertex 3.92314 -0.780361 0
    endloop
  endfacet
  facet normal 0 0 -1
    outer loop
      vertex 6.65176 -4.44456 0
      vertex 3.32588 -2.22228 0
      vertex 3.69552 -1.53073 0
    endloop
  endfacet
  facet normal 0 0 -1
    outer loop
      vertex 2.22228 -3.32588 0
      vertex 4.44456 -6.65176 0
      vertex 3.06147 -7.39104 0
    endloop
  endfacet
  facet normal 0 0 -1
    outer loop
      vertex 5.65685 -5.65685 0
      vertex 2.82843 -2.82843 0
      vertex 3.32588 -2.22228 0
    endloop
  endfacet
  facet normal 0 0 -1
    outer loop
      vertex 4.44456 -6.65176 0
      vertex 2.22228 -3.32588 0
      vertex 2.82843 -2.82843 0
    endloop
  endfacet
  facet normal 0 0 -1
    outer loop
      vertex 1.53073 -3.69552 0
      vertex 3.06147 -7.39104 0
      vertex 1.56072 -7.84628 0
    endloop
  endfacet
  facet normal 0 0 -1
    outer loop
      vertex 3.06147 -7.39104 0
      vertex 1.53073 -3.69552 0
      vertex 2.22228 -3.32588 0
    endloop
  endfacet
  facet normal 0 0 -1
    outer loop
      vertex 1.56072 -7.84628 0
      vertex 0.780361 -3.92314 0
      vertex 1.53073 -3.69552 0
    endloop
  endfacet
  facet normal 0 0 -1
    outer loop
      vertex 0 -8 0
      vertex 0.780361 -3.92314 0
      vertex 1.56072 -7.84628 0
    endloop
  endfacet
  facet normal 0 0 -1
    outer loop
      vertex 0 -8 0
      vertex 0 -4 0
      vertex 0.780361 -3.92314 0
    endloop
  endfacet
  facet normal 0 0 -1
    outer loop
      vertex 0 -8 0
      vertex -0.780361 -3.92314 0
      vertex 0 -4 0
    endloop
  endfacet
  facet normal 0 0 -1
    outer loop
      vertex -1.56072 -7.84628 0
      vertex -0.780361 -3.92314 0
      vertex 0 -8 0
    endloop
  endfacet
  facet normal -0 0 -1
    outer loop
      vertex -0.780361 -3.92314 0
      vertex -1.56072 -7.84628 0
      vertex -1.53073 -3.69552 0
    endloop
  endfacet
  facet normal 0 0 -1
    outer loop
      vertex -3.06147 -7.39104 0
      vertex -1.53073 -3.69552 0
      vertex -1.56072 -7.84628 0
    endloop
  endfacet
  facet normal -0 0 -1
    outer loop
      vertex -1.53073 -3.69552 0
      vertex -3.06147 -7.39104 0
      vertex -2.22228 -3.32588 0
    endloop
  endfacet
  facet normal 0 0 -1
    outer loop
      vertex -4.44456 -6.65176 0
      vertex -2.22228 -3.32588 0
      vertex -3.06147 -7.39104 0
    endloop
  endfacet
  facet normal -0 0 -1
    outer loop
      vertex -2.22228 -3.32588 0
      vertex -4.44456 -6.65176 0
      vertex -2.82843 -2.82843 0
    endloop
  endfacet
  facet normal 0 0 -1
    outer loop
      vertex -5.65685 -5.65685 0
      vertex -2.82843 -2.82843 0
      vertex -4.44456 -6.65176 0
    endloop
  endfacet
  facet normal -0 0 -1
    outer loop
      vertex -2.82843 -2.82843 0
      vertex -5.65685 -5.65685 0
      vertex -3.32588 -2.22228 0
    endloop
  endfacet
  facet normal -0 0 -1
    outer loop
      vertex -3.32588 -2.22228 0
      vertex -6.65176 -4.44456 0
      vertex -3.69552 -1.53073 0
    endloop
  endfacet
  facet normal 0 0 -1
    outer loop
      vertex -6.65176 -4.44456 0
      vertex -3.32588 -2.22228 0
      vertex -5.65685 -5.65685 0
    endloop
  endfacet
  facet normal 0 0 -1
    outer loop
      vertex 3.32588 2.22228 0
      vertex 6.65176 4.44456 0
      vertex 3.69552 1.53073 0
    endloop
  endfacet
  facet normal -0 0 -1
    outer loop
      vertex 6.65176 4.44456 0
      vertex 3.32588 2.22228 0
      vertex 5.65685 5.65685 0
    endloop
  endfacet
  facet normal 0 0 -1
    outer loop
      vertex 2.82843 2.82843 0
      vertex 5.65685 5.65685 0
      vertex 3.32588 2.22228 0
    endloop
  endfacet
  facet normal -0 0 -1
    outer loop
      vertex 5.65685 5.65685 0
      vertex 2.82843 2.82843 0
      vertex 4.44456 6.65176 0
    endloop
  endfacet
  facet normal 0 0 -1
    outer loop
      vertex 2.22228 3.32588 0
      vertex 4.44456 6.65176 0
      vertex 2.82843 2.82843 0
    endloop
  endfacet
  facet normal -0 0 -1
    outer loop
      vertex 4.44456 6.65176 0
      vertex 2.22228 3.32588 0
      vertex 3.06147 7.39104 0
    endloop
  endfacet
  facet normal 0 0 -1
    outer loop
      vertex 1.53073 3.69552 0
      vertex 3.06147 7.39104 0
      vertex 2.22228 3.32588 0
    endloop
  endfacet
  facet normal -0 0 -1
    outer loop
      vertex 3.06147 7.39104 0
      vertex 1.53073 3.69552 0
      vertex 1.56072 7.84628 0
    endloop
  endfacet
  facet normal 0 0 -1
    outer loop
      vertex 0.780361 3.92314 0
      vertex 1.56072 7.84628 0
      vertex 1.53073 3.69552 0
    endloop
  endfacet
  facet normal 0 0 -1
    outer loop
      vertex 0 4 0
      vertex 1.56072 7.84628 0
      vertex 0.780361 3.92314 0
    endloop
  endfacet
  facet normal 0 0 -1
    outer loop
      vertex 0 4 0
      vertex 0 8 0
      vertex 1.56072 7.84628 0
    endloop
  endfacet
  facet normal 0 0 -1
    outer loop
      vertex -0.780361 3.92314 0
      vertex 0 8 0
      vertex 0 4 0
    endloop
  endfacet
  facet normal 0 0 -1
    outer loop
      vertex -1.56072 7.84628 0
      vertex -0.780361 3.92314 0
      vertex -1.53073 3.69552 0
    endloop
  endfacet
  facet normal 0 0 -1
    outer loop
      vertex -0.780361 3.92314 0
      vertex -1.56072 7.84628 0
      vertex 0 8 0
    endloop
  endfacet
  facet normal 0 0 -1
    outer loop
      vertex -3.06147 7.39104 0
      vertex -1.53073 3.69552 0
      vertex -2.22228 3.32588 0
    endloop
  endfacet
  facet normal 0 0 -1
    outer loop
      vertex -4.44456 6.65176 0
      vertex -2.22228 3.32588 0
      vertex -2.82843 2.82843 0
    endloop
  endfacet
  facet normal 0 0 -1
    outer loop
      vertex -1.53073 3.69552 0
      vertex -3.06147 7.39104 0
      vertex -1.56072 7.84628 0
    endloop
  endfacet
  facet normal 0 0 -1
    outer loop
      vertex -5.65685 5.65685 0
      vertex -2.82843 2.82843 0
      vertex -3.32588 2.22228 0
    endloop
  endfacet
  facet normal 0 0 -1
    outer loop
      vertex -6.65176 4.44456 0
      vertex -3.32588 2.22228 0
      vertex -3.69552 1.53073 0
    endloop
  endfacet
  facet normal 0 0 -1
    outer loop
      vertex -7.39104 3.06147 0
      vertex -3.69552 1.53073 0
      vertex -3.92314 0.780361 0
    endloop
  endfacet
  facet normal 0 0 -1
    outer loop
      vertex -2.22228 3.32588 0
      vertex -4.44456 6.65176 0
      vertex -3.06147 7.39104 0
    endloop
  endfacet
  facet normal 0 0 -1
    outer loop
      vertex -7.84628 1.56072 0
      vertex -3.92314 0.780361 0
      vertex -4 0 0
    endloop
  endfacet
  facet normal 0 0 -1
    outer loop
      vertex -7.39104 -3.06147 0
      vertex -3.69552 -1.53073 0
      vertex -6.65176 -4.44456 0
    endloop
  endfacet
  facet normal -0 0 -1
    outer loop
      vertex -3.69552 -1.53073 0
      vertex -7.39104 -3.06147 0
      vertex -3.92314 -0.780361 0
    endloop
  endfacet
  facet normal 0 0 -1
    outer loop
      vertex -2.82843 2.82843 0
      vertex -5.65685 5.65685 0
      vertex -4.44456 6.65176 0
    endloop
  endfacet
  facet normal 0 0 -1
    outer loop
      vertex -7.84628 -1.56072 0
      vertex -3.92314 -0.780361 0
      vertex -7.39104 -3.06147 0
    endloop
  endfacet
  facet normal 0 0 -1
    outer loop
      vertex -3.32588 2.22228 0
      vertex -6.65176 4.44456 0
      vertex -5.65685 5.65685 0
    endloop
  endfacet
  facet normal -0 0 -1
    outer loop
      vertex -3.92314 -0.780361 0
      vertex -7.84628 -1.56072 0
      vertex -4 0 0
    endloop
  endfacet
  facet normal 0 0 -1
    outer loop
      vertex -3.69552 1.53073 0
      vertex -7.39104 3.06147 0
      vertex -6.65176 4.44456 0
    endloop
  endfacet
  facet normal 0 0 -1
    outer loop
      vertex -8 0 0
      vertex -4 0 0
      vertex -7.84628 -1.56072 0
    endloop
  endfacet
  facet normal 0 0 -1
    outer loop
      vertex -3.92314 0.780361 0
      vertex -7.84628 1.56072 0
      vertex -7.39104 3.06147 0
    endloop
  endfacet
  facet normal 0 0 -1
    outer loop
      vertex -4 0 0
      vertex -8 0 0
      vertex -7.84628 1.56072 0
    endloop
  endfacet
  facet normal -0.773016 -0.634387 0
    outer loop
      vertex -4.41942 -4.41942 10
      vertex -5.19668 -3.47231 20
      vertex -5.19668 -3.47231 10
    endloop
  endfacet
  facet normal -0.773016 -0.634387 0
    outer loop
      vertex -5.19668 -3.47231 20
      vertex -4.41942 -4.41942 10
      vertex -4.41942 -4.41942 20
    endloop
  endfacet
  facet normal 0.956941 0.290283 0
    outer loop
      vertex 6.12991 1.21931 20
      vertex 5.77425 2.39177 10
      vertex 5.77425 2.39177 20
    endloop
  endfacet
  facet normal 0.956941 0.290283 0
    outer loop
      vertex 5.77425 2.39177 10
      vertex 6.12991 1.21931 20
      vertex 6.12991 1.21931 10
    endloop
  endfacet
  facet normal 0.290283 0.956941 -0
    outer loop
      vertex 2.39177 5.77425 10
      vertex 1.21931 6.12991 20
      vertex 2.39177 5.77425 20
    endloop
  endfacet
  facet normal 0.290283 0.956941 0
    outer loop
      vertex 1.21931 6.12991 20
      vertex 2.39177 5.77425 10
      vertex 1.21931 6.12991 10
    endloop
  endfacet
  facet normal 0 0 1
    outer loop
      vertex 5.24688 0 20
      vertex 6.25 0 20
      vertex 6.12991 1.21931 20
    endloop
  endfacet
  facet normal 0 0 1
    outer loop
      vertex 5.1455 1.02549 20
      vertex 6.12991 1.21931 20
      vertex 5.77425 2.39177 20
    endloop
  endfacet
  facet normal 0 0 1
    outer loop
      vertex 6.25 0 20
      vertex 5.24688 0 20
      vertex 6.12991 -1.21931 20
    endloop
  endfacet
  facet normal -0 0 1
    outer loop
      vertex 5.14626 -1.02167 20
      vertex 6.12991 -1.21931 20
      vertex 5.24688 0 20
    endloop
  endfacet
  facet normal 0 0 1
    outer loop
      vertex 4.84749 2.00789 20
      vertex 5.77425 2.39177 20
      vertex 5.19668 3.47231 20
    endloop
  endfacet
  facet normal 0 0 1
    outer loop
      vertex 6.12991 1.21931 20
      vertex 5.14626 1.02167 20
      vertex 5.24688 0 20
    endloop
  endfacet
  facet normal 0 0 1
    outer loop
      vertex 6.12991 1.21931 20
      vertex 5.14607 1.02362 20
      vertex 5.14626 1.02167 20
    endloop
  endfacet
  facet normal 0 0 1
    outer loop
      vertex 6.12991 1.21931 20
      vertex 5.1455 1.02549 20
      vertex 5.14607 1.02362 20
    endloop
  endfacet
  facet normal 0 0 1
    outer loop
      vertex 5.77425 2.39177 20
      vertex 4.84749 2.00789 20
      vertex 5.1455 1.02549 20
    endloop
  endfacet
  facet normal 0 0 1
    outer loop
      vertex 4.36262 2.91501 20
      vertex 5.19668 3.47231 20
      vertex 4.41942 4.41942 20
    endloop
  endfacet
  facet normal 0 0 1
    outer loop
      vertex 5.19668 3.47231 20
      vertex 4.36355 2.91329 20
      vertex 4.84749 2.00789 20
    endloop
  endfacet
  facet normal 0 0 1
    outer loop
      vertex 5.19668 3.47231 20
      vertex 4.36262 2.91501 20
      vertex 4.36355 2.91329 20
    endloop
  endfacet
  facet normal 0 0 1
    outer loop
      vertex 4.41942 4.41942 20
      vertex 3.71135 3.70859 20
      vertex 4.36262 2.91501 20
    endloop
  endfacet
  facet normal 0 0 1
    outer loop
      vertex 4.41942 4.41942 20
      vertex 3.71011 3.71011 20
      vertex 3.71135 3.70859 20
    endloop
  endfacet
  facet normal 0 0 1
    outer loop
      vertex 4.41942 4.41942 20
      vertex 3.70859 3.71135 20
      vertex 3.71011 3.71011 20
    endloop
  endfacet
  facet normal 0 0 1
    outer loop
      vertex 3.47231 5.19668 20
      vertex 3.70859 3.71135 20
      vertex 4.41942 4.41942 20
    endloop
  endfacet
  facet normal 0 0 1
    outer loop
      vertex 3.47231 5.19668 20
      vertex 2.91501 4.36262 20
      vertex 3.70859 3.71135 20
    endloop
  endfacet
  facet normal 0 0 1
    outer loop
      vertex 3.47231 5.19668 20
      vertex 2.91329 4.36355 20
      vertex 2.91501 4.36262 20
    endloop
  endfacet
  facet normal 0 0 1
    outer loop
      vertex 2.39177 5.77425 20
      vertex 2.91329 4.36355 20
      vertex 3.47231 5.19668 20
    endloop
  endfacet
  facet normal 0 0 1
    outer loop
      vertex 2.39177 5.77425 20
      vertex 2.00789 4.84749 20
      vertex 2.91329 4.36355 20
    endloop
  endfacet
  facet normal 0 0 1
    outer loop
      vertex 1.21931 6.12991 20
      vertex 2.00789 4.84749 20
      vertex 2.39177 5.77425 20
    endloop
  endfacet
  facet normal 0 0 1
    outer loop
      vertex 1.21931 6.12991 20
      vertex 1.02549 5.1455 20
      vertex 2.00789 4.84749 20
    endloop
  endfacet
  facet normal 0 0 1
    outer loop
      vertex 1.21931 6.12991 20
      vertex 1.02362 5.14607 20
      vertex 1.02549 5.1455 20
    endloop
  endfacet
  facet normal 0 0 1
    outer loop
      vertex 1.21931 6.12991 20
      vertex 1.02167 5.14626 20
      vertex 1.02362 5.14607 20
    endloop
  endfacet
  facet normal 0 0 1
    outer loop
      vertex 0 6.25 20
      vertex 1.02167 5.14626 20
      vertex 1.21931 6.12991 20
    endloop
  endfacet
  facet normal 0 0 1
    outer loop
      vertex 0 6.25 20
      vertex 0 5.24688 20
      vertex 1.02167 5.14626 20
    endloop
  endfacet
  facet normal 0 0 1
    outer loop
      vertex 0 6.25 20
      vertex -1.02167 5.14626 20
      vertex 0 5.24688 20
    endloop
  endfacet
  facet normal -0 0 1
    outer loop
      vertex -1.21931 6.12991 20
      vertex -1.02167 5.14626 20
      vertex 0 6.25 20
    endloop
  endfacet
  facet normal 0 0 1
    outer loop
      vertex -1.02167 5.14626 20
      vertex -1.21931 6.12991 20
      vertex -1.02362 5.14607 20
    endloop
  endfacet
  facet normal 0 0 1
    outer loop
      vertex -1.02362 5.14607 20
      vertex -1.21931 6.12991 20
      vertex -1.02549 5.1455 20
    endloop
  endfacet
  facet normal 0 0 1
    outer loop
      vertex -1.21931 6.12991 20
      vertex -2.00789 4.84749 20
      vertex -1.02549 5.1455 20
    endloop
  endfacet
  facet normal -0 0 1
    outer loop
      vertex -2.39177 5.77425 20
      vertex -2.00789 4.84749 20
      vertex -1.21931 6.12991 20
    endloop
  endfacet
  facet normal 0 0 1
    outer loop
      vertex -2.39177 5.77425 20
      vertex -2.91329 4.36355 20
      vertex -2.00789 4.84749 20
    endloop
  endfacet
  facet normal -0 0 1
    outer loop
      vertex -3.47231 5.19668 20
      vertex -2.91329 4.36355 20
      vertex -2.39177 5.77425 20
    endloop
  endfacet
  facet normal 0 0 1
    outer loop
      vertex -2.91329 4.36355 20
      vertex -3.47231 5.19668 20
      vertex -2.91501 4.36262 20
    endloop
  endfacet
  facet normal 0 0 1
    outer loop
      vertex -3.47231 5.19668 20
      vertex -3.70859 3.71135 20
      vertex -2.91501 4.36262 20
    endloop
  endfacet
  facet normal -0 0 1
    outer loop
      vertex -4.41942 4.41942 20
      vertex -3.70859 3.71135 20
      vertex -3.47231 5.19668 20
    endloop
  endfacet
  facet normal 0 0 1
    outer loop
      vertex -3.70859 3.71135 20
      vertex -4.41942 4.41942 20
      vertex -3.71011 3.71011 20
    endloop
  endfacet
  facet normal 0 0 1
    outer loop
      vertex -3.71011 3.71011 20
      vertex -4.41942 4.41942 20
      vertex -3.71135 3.70859 20
    endloop
  endfacet
  facet normal 0 0 1
    outer loop
      vertex -3.71135 3.70859 20
      vertex -4.41942 4.41942 20
      vertex -4.36262 2.91501 20
    endloop
  endfacet
  facet normal -0 0 1
    outer loop
      vertex -5.19668 3.47231 20
      vertex -4.36262 2.91501 20
      vertex -4.41942 4.41942 20
    endloop
  endfacet
  facet normal 0 0 1
    outer loop
      vertex -4.36262 2.91501 20
      vertex -5.19668 3.47231 20
      vertex -4.36355 2.91329 20
    endloop
  endfacet
  facet normal 0 0 1
    outer loop
      vertex -4.36355 2.91329 20
      vertex -5.19668 3.47231 20
      vertex -4.84749 2.00789 20
    endloop
  endfacet
  facet normal -0 0 1
    outer loop
      vertex -5.77425 2.39177 20
      vertex -4.84749 2.00789 20
      vertex -5.19668 3.47231 20
    endloop
  endfacet
  facet normal 0 0 1
    outer loop
      vertex -4.84749 2.00789 20
      vertex -5.77425 2.39177 20
      vertex -5.1455 1.02549 20
    endloop
  endfacet
  facet normal -0 0 1
    outer loop
      vertex -6.12991 1.21931 20
      vertex -5.1455 1.02549 20
      vertex -5.77425 2.39177 20
    endloop
  endfacet
  facet normal 0 0 1
    outer loop
      vertex -5.1455 1.02549 20
      vertex -6.12991 1.21931 20
      vertex -5.14607 1.02362 20
    endloop
  endfacet
  facet normal 0 0 1
    outer loop
      vertex -5.14607 1.02362 20
      vertex -6.12991 1.21931 20
      vertex -5.14626 1.02167 20
    endloop
  endfacet
  facet normal -0 0 1
    outer loop
      vertex 5.14607 -1.02362 20
      vertex 6.12991 -1.21931 20
      vertex 5.14626 -1.02167 20
    endloop
  endfacet
  facet normal -0 0 1
    outer loop
      vertex 5.1455 -1.02549 20
      vertex 6.12991 -1.21931 20
      vertex 5.14607 -1.02362 20
    endloop
  endfacet
  facet normal 0 0 1
    outer loop
      vertex 6.12991 -1.21931 20
      vertex 5.1455 -1.02549 20
      vertex 5.77425 -2.39177 20
    endloop
  endfacet
  facet normal -0 0 1
    outer loop
      vertex 4.84749 -2.00789 20
      vertex 5.77425 -2.39177 20
      vertex 5.1455 -1.02549 20
    endloop
  endfacet
  facet normal 0 0 1
    outer loop
      vertex 5.77425 -2.39177 20
      vertex 4.84749 -2.00789 20
      vertex 5.19668 -3.47231 20
    endloop
  endfacet
  facet normal -0 0 1
    outer loop
      vertex 4.36355 -2.91329 20
      vertex 5.19668 -3.47231 20
      vertex 4.84749 -2.00789 20
    endloop
  endfacet
  facet normal -0 0 1
    outer loop
      vertex 4.36262 -2.91501 20
      vertex 5.19668 -3.47231 20
      vertex 4.36355 -2.91329 20
    endloop
  endfacet
  facet normal 0 0 1
    outer loop
      vertex 5.19668 -3.47231 20
      vertex 4.36262 -2.91501 20
      vertex 4.41942 -4.41942 20
    endloop
  endfacet
  facet normal -0 0 1
    outer loop
      vertex 3.71135 -3.70859 20
      vertex 4.41942 -4.41942 20
      vertex 4.36262 -2.91501 20
    endloop
  endfacet
  facet normal -0 0 1
    outer loop
      vertex 3.71011 -3.71011 20
      vertex 4.41942 -4.41942 20
      vertex 3.71135 -3.70859 20
    endloop
  endfacet
  facet normal -0 0 1
    outer loop
      vertex 3.70859 -3.71135 20
      vertex 4.41942 -4.41942 20
      vertex 3.71011 -3.71011 20
    endloop
  endfacet
  facet normal 0 0 1
    outer loop
      vertex 3.70859 -3.71135 20
      vertex 3.47231 -5.19668 20
      vertex 4.41942 -4.41942 20
    endloop
  endfacet
  facet normal -0 0 1
    outer loop
      vertex 2.91501 -4.36262 20
      vertex 3.47231 -5.19668 20
      vertex 3.70859 -3.71135 20
    endloop
  endfacet
  facet normal -0 0 1
    outer loop
      vertex 2.91329 -4.36355 20
      vertex 3.47231 -5.19668 20
      vertex 2.91501 -4.36262 20
    endloop
  endfacet
  facet normal 0 0 1
    outer loop
      vertex 2.91329 -4.36355 20
      vertex 2.39177 -5.77425 20
      vertex 3.47231 -5.19668 20
    endloop
  endfacet
  facet normal -0 0 1
    outer loop
      vertex 2.00789 -4.84749 20
      vertex 2.39177 -5.77425 20
      vertex 2.91329 -4.36355 20
    endloop
  endfacet
  facet normal 0 0 1
    outer loop
      vertex 2.00789 -4.84749 20
      vertex 1.21931 -6.12991 20
      vertex 2.39177 -5.77425 20
    endloop
  endfacet
  facet normal -0 0 1
    outer loop
      vertex 1.02549 -5.1455 20
      vertex 1.21931 -6.12991 20
      vertex 2.00789 -4.84749 20
    endloop
  endfacet
  facet normal -0 0 1
    outer loop
      vertex 1.02362 -5.14607 20
      vertex 1.21931 -6.12991 20
      vertex 1.02549 -5.1455 20
    endloop
  endfacet
  facet normal -0 0 1
    outer loop
      vertex 1.02167 -5.14626 20
      vertex 1.21931 -6.12991 20
      vertex 1.02362 -5.14607 20
    endloop
  endfacet
  facet normal -0 0 1
    outer loop
      vertex 0 -5.24688 20
      vertex 1.21931 -6.12991 20
      vertex 1.02167 -5.14626 20
    endloop
  endfacet
  facet normal 0 0 1
    outer loop
      vertex 0 -5.24688 20
      vertex 0 -6.25 20
      vertex 1.21931 -6.12991 20
    endloop
  endfacet
  facet normal 0 0 1
    outer loop
      vertex -1.02167 -5.14626 20
      vertex 0 -6.25 20
      vertex 0 -5.24688 20
    endloop
  endfacet
  facet normal 0 0 1
    outer loop
      vertex -1.21931 -6.12991 20
      vertex -1.02167 -5.14626 20
      vertex -1.02362 -5.14607 20
    endloop
  endfacet
  facet normal 0 0 1
    outer loop
      vertex -1.21931 -6.12991 20
      vertex -1.02362 -5.14607 20
      vertex -1.02549 -5.1455 20
    endloop
  endfacet
  facet normal 0 0 1
    outer loop
      vertex -1.02167 -5.14626 20
      vertex -1.21931 -6.12991 20
      vertex 0 -6.25 20
    endloop
  endfacet
  facet normal 0 0 1
    outer loop
      vertex -2.00789 -4.84749 20
      vertex -1.21931 -6.12991 20
      vertex -1.02549 -5.1455 20
    endloop
  endfacet
  facet normal 0 0 1
    outer loop
      vertex -2.00789 -4.84749 20
      vertex -2.39177 -5.77425 20
      vertex -1.21931 -6.12991 20
    endloop
  endfacet
  facet normal 0 0 1
    outer loop
      vertex -2.91329 -4.36355 20
      vertex -2.39177 -5.77425 20
      vertex -2.00789 -4.84749 20
    endloop
  endfacet
  facet normal 0 0 1
    outer loop
      vertex -3.47231 -5.19668 20
      vertex -2.91329 -4.36355 20
      vertex -2.91501 -4.36262 20
    endloop
  endfacet
  facet normal 0 0 1
    outer loop
      vertex -2.91329 -4.36355 20
      vertex -3.47231 -5.19668 20
      vertex -2.39177 -5.77425 20
    endloop
  endfacet
  facet normal 0 0 1
    outer loop
      vertex -3.70859 -3.71135 20
      vertex -3.47231 -5.19668 20
      vertex -2.91501 -4.36262 20
    endloop
  endfacet
  facet normal 0 0 1
    outer loop
      vertex -4.41942 -4.41942 20
      vertex -3.70859 -3.71135 20
      vertex -3.71011 -3.71011 20
    endloop
  endfacet
  facet normal 0 0 1
    outer loop
      vertex -4.41942 -4.41942 20
      vertex -3.71011 -3.71011 20
      vertex -3.71135 -3.70859 20
    endloop
  endfacet
  facet normal 0 0 1
    outer loop
      vertex -4.41942 -4.41942 20
      vertex -3.71135 -3.70859 20
      vertex -4.36262 -2.91501 20
    endloop
  endfacet
  facet normal 0 0 1
    outer loop
      vertex -5.19668 -3.47231 20
      vertex -4.36262 -2.91501 20
      vertex -4.36355 -2.91329 20
    endloop
  endfacet
  facet normal 0 0 1
    outer loop
      vertex -3.70859 -3.71135 20
      vertex -4.41942 -4.41942 20
      vertex -3.47231 -5.19668 20
    endloop
  endfacet
  facet normal 0 0 1
    outer loop
      vertex -5.19668 -3.47231 20
      vertex -4.36355 -2.91329 20
      vertex -4.84749 -2.00789 20
    endloop
  endfacet
  facet normal 0 0 1
    outer loop
      vertex -5.77425 -2.39177 20
      vertex -4.84749 -2.00789 20
      vertex -5.1455 -1.02549 20
    endloop
  endfacet
  facet normal 0 0 1
    outer loop
      vertex -6.12991 -1.21931 20
      vertex -5.1455 -1.02549 20
      vertex -5.14607 -1.02362 20
    endloop
  endfacet
  facet normal 0 0 1
    outer loop
      vertex -4.36262 -2.91501 20
      vertex -5.19668 -3.47231 20
      vertex -4.41942 -4.41942 20
    endloop
  endfacet
  facet normal 0 0 1
    outer loop
      vertex -6.12991 -1.21931 20
      vertex -5.14607 -1.02362 20
      vertex -5.14626 -1.02167 20
    endloop
  endfacet
  facet normal 0 0 1
    outer loop
      vertex -6.12991 -1.21931 20
      vertex -5.14626 -1.02167 20
      vertex -5.24688 0 20
    endloop
  endfacet
  facet normal 0 0 1
    outer loop
      vertex -5.14626 1.02167 20
      vertex -6.12991 1.21931 20
      vertex -5.24688 0 20
    endloop
  endfacet
  facet normal 0 0 1
    outer loop
      vertex -4.84749 -2.00789 20
      vertex -5.77425 -2.39177 20
      vertex -5.19668 -3.47231 20
    endloop
  endfacet
  facet normal 0 0 1
    outer loop
      vertex -6.25 0 20
      vertex -5.24688 0 20
      vertex -6.12991 1.21931 20
    endloop
  endfacet
  facet normal 0 0 1
    outer loop
      vertex -5.1455 -1.02549 20
      vertex -6.12991 -1.21931 20
      vertex -5.77425 -2.39177 20
    endloop
  endfacet
  facet normal 0 0 1
    outer loop
      vertex -5.24688 0 20
      vertex -6.25 0 20
      vertex -6.12991 -1.21931 20
    endloop
  endfacet
  facet normal -0.956941 0.290283 0
    outer loop
      vertex -6.12991 1.21931 10
      vertex -5.77425 2.39177 20
      vertex -5.77425 2.39177 10
    endloop
  endfacet
  facet normal -0.956941 0.290283 0
    outer loop
      vertex -5.77425 2.39177 20
      vertex -6.12991 1.21931 10
      vertex -6.12991 1.21931 20
    endloop
  endfacet
  facet normal 0.773016 -0.634387 0
    outer loop
      vertex 4.41942 -4.41942 20
      vertex 5.19668 -3.47231 10
      vertex 5.19668 -3.47231 20
    endloop
  endfacet
  facet normal 0.773016 -0.634387 0
    outer loop
      vertex 5.19668 -3.47231 10
      vertex 4.41942 -4.41942 20
      vertex 4.41942 -4.41942 10
    endloop
  endfacet
  facet normal 0.881918 -0.471403 0
    outer loop
      vertex 5.19668 -3.47231 20
      vertex 5.77425 -2.39177 10
      vertex 5.77425 -2.39177 20
    endloop
  endfacet
  facet normal 0.881918 -0.471403 0
    outer loop
      vertex 5.77425 -2.39177 10
      vertex 5.19668 -3.47231 20
      vertex 5.19668 -3.47231 10
    endloop
  endfacet
  facet normal 0.634387 -0.773016 0
    outer loop
      vertex 3.47231 -5.19668 10
      vertex 4.41942 -4.41942 20
      vertex 3.47231 -5.19668 20
    endloop
  endfacet
  facet normal 0.634387 -0.773016 0
    outer loop
      vertex 4.41942 -4.41942 20
      vertex 3.47231 -5.19668 10
      vertex 4.41942 -4.41942 10
    endloop
  endfacet
  facet normal -0.471403 -0.881918 0
    outer loop
      vertex -3.47231 -5.19668 10
      vertex -2.39177 -5.77425 20
      vertex -3.47231 -5.19668 20
    endloop
  endfacet
  facet normal -0.471403 -0.881918 -0
    outer loop
      vertex -2.39177 -5.77425 20
      vertex -3.47231 -5.19668 10
      vertex -2.39177 -5.77425 10
    endloop
  endfacet
  facet normal -0.956941 -0.290283 0
    outer loop
      vertex -5.77425 -2.39177 10
      vertex -6.12991 -1.21931 20
      vertex -6.12991 -1.21931 10
    endloop
  endfacet
  facet normal -0.956941 -0.290283 0
    outer loop
      vertex -6.12991 -1.21931 20
      vertex -5.77425 -2.39177 10
      vertex -5.77425 -2.39177 20
    endloop
  endfacet
  facet normal 0.980427 0.0965652 0.171575
    outer loop
      vertex 7.84628 1.56072 0
      vertex 6.25 0 10
      vertex 8 0 0
    endloop
  endfacet
  facet normal 0.942751 0.285976 0.171575
    outer loop
      vertex 7.39104 3.06147 0
      vertex 6.12991 1.21931 10
      vertex 7.84628 1.56072 0
    endloop
  endfacet
  facet normal -0.285979 0.94275 0.171575
    outer loop
      vertex -1.21931 6.12991 10
      vertex -3.06147 7.39104 0
      vertex -2.39177 5.77425 10
    endloop
  endfacet
  facet normal 0.0965652 -0.980427 0.171575
    outer loop
      vertex 0 -6.25 10
      vertex 0 -8 0
      vertex 1.56072 -7.84628 0
    endloop
  endfacet
  facet normal 0.86884 0.464412 0.171575
    outer loop
      vertex 7.39104 3.06147 0
      vertex 5.19668 3.47231 10
      vertex 5.77425 2.39177 10
    endloop
  endfacet
  facet normal 0.94275 -0.285979 0.171575
    outer loop
      vertex 6.12991 -1.21931 10
      vertex 5.77425 -2.39177 10
      vertex 7.39104 -3.06147 0
    endloop
  endfacet
  facet normal -0.285976 0.942751 0.171575
    outer loop
      vertex -1.56072 7.84628 0
      vertex -3.06147 7.39104 0
      vertex -1.21931 6.12991 10
    endloop
  endfacet
  facet normal -0.761545 0.62499 0.171574
    outer loop
      vertex -5.65685 5.65685 0
      vertex -6.65176 4.44456 0
      vertex -4.41942 4.41942 10
    endloop
  endfacet
  facet normal -0.761553 0.62498 0.171576
    outer loop
      vertex -4.41942 4.41942 10
      vertex -6.65176 4.44456 0
      vertex -5.19668 3.47231 10
    endloop
  endfacet
  facet normal -0.980427 0.0965652 0.171575
    outer loop
      vertex -7.84628 1.56072 0
      vertex -8 0 0
      vertex -6.25 0 10
    endloop
  endfacet
  facet normal 0.62499 0.761545 0.171574
    outer loop
      vertex 4.44456 6.65176 0
      vertex 4.41942 4.41942 10
      vertex 5.65685 5.65685 0
    endloop
  endfacet
  facet normal 0.868842 -0.464408 0.171576
    outer loop
      vertex 7.39104 -3.06147 0
      vertex 5.19668 -3.47231 10
      vertex 6.65176 -4.44456 0
    endloop
  endfacet
  facet normal 0.980427 -0.0965652 0.171575
    outer loop
      vertex 8 0 0
      vertex 6.25 0 10
      vertex 7.84628 -1.56072 0
    endloop
  endfacet
  facet normal 0.285976 0.942751 0.171575
    outer loop
      vertex 1.56072 7.84628 0
      vertex 1.21931 6.12991 10
      vertex 3.06147 7.39104 0
    endloop
  endfacet
  facet normal 0.464408 0.868842 0.171576
    outer loop
      vertex 4.44456 6.65176 0
      vertex 3.06147 7.39104 0
      vertex 3.47231 5.19668 10
    endloop
  endfacet
  facet normal 0.464412 0.86884 0.171575
    outer loop
      vertex 3.06147 7.39104 0
      vertex 2.39177 5.77425 10
      vertex 3.47231 5.19668 10
    endloop
  endfacet
  facet normal 0.285979 0.94275 0.171575
    outer loop
      vertex 3.06147 7.39104 0
      vertex 1.21931 6.12991 10
      vertex 2.39177 5.77425 10
    endloop
  endfacet
  facet normal 0.0965652 0.980427 0.171575
    outer loop
      vertex 0 8 0
      vertex 0 6.25 10
      vertex 1.56072 7.84628 0
    endloop
  endfacet
  facet normal -0.868842 0.464408 0.171576
    outer loop
      vertex -6.65176 4.44456 0
      vertex -7.39104 3.06147 0
      vertex -5.19668 3.47231 10
    endloop
  endfacet
  facet normal -0.86884 -0.464412 0.171575
    outer loop
      vertex -5.77425 -2.39177 10
      vertex -7.39104 -3.06147 0
      vertex -5.19668 -3.47231 10
    endloop
  endfacet
  facet normal -0.942751 0.285976 0.171575
    outer loop
      vertex -7.39104 3.06147 0
      vertex -7.84628 1.56072 0
      vertex -6.12991 1.21931 10
    endloop
  endfacet
  facet normal -0.980427 0.0965624 0.171574
    outer loop
      vertex -6.12991 1.21931 10
      vertex -7.84628 1.56072 0
      vertex -6.25 0 10
    endloop
  endfacet
  facet normal -0.62499 -0.761545 0.171574
    outer loop
      vertex -4.41942 -4.41942 10
      vertex -5.65685 -5.65685 0
      vertex -4.44456 -6.65176 0
    endloop
  endfacet
  facet normal 0.980427 0.0965624 0.171574
    outer loop
      vertex 7.84628 1.56072 0
      vertex 6.12991 1.21931 10
      vertex 6.25 0 10
    endloop
  endfacet
  facet normal 0.868842 0.464408 0.171576
    outer loop
      vertex 6.65176 4.44456 0
      vertex 5.19668 3.47231 10
      vertex 7.39104 3.06147 0
    endloop
  endfacet
  facet normal -0.62498 -0.761553 0.171576
    outer loop
      vertex -4.41942 -4.41942 10
      vertex -4.44456 -6.65176 0
      vertex -3.47231 -5.19668 10
    endloop
  endfacet
  facet normal -0.0965652 -0.980427 0.171575
    outer loop
      vertex 0 -6.25 10
      vertex -1.56072 -7.84628 0
      vertex 0 -8 0
    endloop
  endfacet
  facet normal 0.285979 -0.94275 0.171575
    outer loop
      vertex 2.39177 -5.77425 10
      vertex 1.21931 -6.12991 10
      vertex 3.06147 -7.39104 0
    endloop
  endfacet
  facet normal 0.62498 -0.761553 0.171576
    outer loop
      vertex 4.41942 -4.41942 10
      vertex 3.47231 -5.19668 10
      vertex 4.44456 -6.65176 0
    endloop
  endfacet
  facet normal 0.62498 0.761553 0.171576
    outer loop
      vertex 4.44456 6.65176 0
      vertex 3.47231 5.19668 10
      vertex 4.41942 4.41942 10
    endloop
  endfacet
  facet normal -0.62499 0.761545 0.171574
    outer loop
      vertex -4.44456 6.65176 0
      vertex -5.65685 5.65685 0
      vertex -4.41942 4.41942 10
    endloop
  endfacet
  facet normal -0.464412 0.86884 0.171575
    outer loop
      vertex -3.06147 7.39104 0
      vertex -3.47231 5.19668 10
      vertex -2.39177 5.77425 10
    endloop
  endfacet
  facet normal -0.0965624 0.980427 0.171574
    outer loop
      vertex 0 6.25 10
      vertex -1.56072 7.84628 0
      vertex -1.21931 6.12991 10
    endloop
  endfacet
  facet normal -0.0965652 0.980427 0.171575
    outer loop
      vertex 0 8 0
      vertex -1.56072 7.84628 0
      vertex 0 6.25 10
    endloop
  endfacet
  facet normal 0.0965624 0.980427 0.171574
    outer loop
      vertex 1.56072 7.84628 0
      vertex 0 6.25 10
      vertex 1.21931 6.12991 10
    endloop
  endfacet
  facet normal -0.980427 -0.0965624 0.171574
    outer loop
      vertex -6.25 0 10
      vertex -7.84628 -1.56072 0
      vertex -6.12991 -1.21931 10
    endloop
  endfacet
  facet normal -0.86884 0.464412 0.171575
    outer loop
      vertex -5.19668 3.47231 10
      vertex -7.39104 3.06147 0
      vertex -5.77425 2.39177 10
    endloop
  endfacet
  facet normal -0.94275 0.285979 0.171575
    outer loop
      vertex -5.77425 2.39177 10
      vertex -7.39104 3.06147 0
      vertex -6.12991 1.21931 10
    endloop
  endfacet
  facet normal -0.464408 -0.868842 0.171576
    outer loop
      vertex -3.47231 -5.19668 10
      vertex -4.44456 -6.65176 0
      vertex -3.06147 -7.39104 0
    endloop
  endfacet
  facet normal 0.94275 0.285979 0.171575
    outer loop
      vertex 7.39104 3.06147 0
      vertex 5.77425 2.39177 10
      vertex 6.12991 1.21931 10
    endloop
  endfacet
  facet normal -0.0965624 -0.980427 0.171574
    outer loop
      vertex -1.21931 -6.12991 10
      vertex -1.56072 -7.84628 0
      vertex 0 -6.25 10
    endloop
  endfacet
  facet normal -0.285979 -0.94275 0.171575
    outer loop
      vertex -2.39177 -5.77425 10
      vertex -3.06147 -7.39104 0
      vertex -1.21931 -6.12991 10
    endloop
  endfacet
  facet normal -0.285976 -0.942751 0.171575
    outer loop
      vertex -1.21931 -6.12991 10
      vertex -3.06147 -7.39104 0
      vertex -1.56072 -7.84628 0
    endloop
  endfacet
  facet normal 0.464408 -0.868842 0.171576
    outer loop
      vertex 3.47231 -5.19668 10
      vertex 3.06147 -7.39104 0
      vertex 4.44456 -6.65176 0
    endloop
  endfacet
  facet normal 0.62499 -0.761545 0.171574
    outer loop
      vertex 5.65685 -5.65685 0
      vertex 4.41942 -4.41942 10
      vertex 4.44456 -6.65176 0
    endloop
  endfacet
  facet normal 0.761553 -0.62498 0.171576
    outer loop
      vertex 5.19668 -3.47231 10
      vertex 4.41942 -4.41942 10
      vertex 6.65176 -4.44456 0
    endloop
  endfacet
  facet normal 0.761545 -0.62499 0.171574
    outer loop
      vertex 6.65176 -4.44456 0
      vertex 4.41942 -4.41942 10
      vertex 5.65685 -5.65685 0
    endloop
  endfacet
  facet normal 0.942751 -0.285976 0.171575
    outer loop
      vertex 7.84628 -1.56072 0
      vertex 6.12991 -1.21931 10
      vertex 7.39104 -3.06147 0
    endloop
  endfacet
  facet normal 0.980427 -0.0965624 0.171574
    outer loop
      vertex 6.25 0 10
      vertex 6.12991 -1.21931 10
      vertex 7.84628 -1.56072 0
    endloop
  endfacet
  facet normal 0.761553 0.62498 0.171576
    outer loop
      vertex 6.65176 4.44456 0
      vertex 4.41942 4.41942 10
      vertex 5.19668 3.47231 10
    endloop
  endfacet
  facet normal 0.761545 0.62499 0.171574
    outer loop
      vertex 5.65685 5.65685 0
      vertex 4.41942 4.41942 10
      vertex 6.65176 4.44456 0
    endloop
  endfacet
  facet normal -0.464408 0.868842 0.171576
    outer loop
      vertex -3.06147 7.39104 0
      vertex -4.44456 6.65176 0
      vertex -3.47231 5.19668 10
    endloop
  endfacet
  facet normal -0.62498 0.761553 0.171576
    outer loop
      vertex -3.47231 5.19668 10
      vertex -4.44456 6.65176 0
      vertex -4.41942 4.41942 10
    endloop
  endfacet
  facet normal -0.761545 -0.62499 0.171574
    outer loop
      vertex -4.41942 -4.41942 10
      vertex -6.65176 -4.44456 0
      vertex -5.65685 -5.65685 0
    endloop
  endfacet
  facet normal -0.942751 -0.285976 0.171575
    outer loop
      vertex -6.12991 -1.21931 10
      vertex -7.84628 -1.56072 0
      vertex -7.39104 -3.06147 0
    endloop
  endfacet
  facet normal -0.980427 -0.0965652 0.171575
    outer loop
      vertex -6.25 0 10
      vertex -8 0 0
      vertex -7.84628 -1.56072 0
    endloop
  endfacet
  facet normal 0.0965624 -0.980427 0.171574
    outer loop
      vertex 1.21931 -6.12991 10
      vertex 0 -6.25 10
      vertex 1.56072 -7.84628 0
    endloop
  endfacet
  facet normal 0.285976 -0.942751 0.171575
    outer loop
      vertex 3.06147 -7.39104 0
      vertex 1.21931 -6.12991 10
      vertex 1.56072 -7.84628 0
    endloop
  endfacet
  facet normal -0.464412 -0.86884 0.171575
    outer loop
      vertex -2.39177 -5.77425 10
      vertex -3.47231 -5.19668 10
      vertex -3.06147 -7.39104 0
    endloop
  endfacet
  facet normal 0.464412 -0.86884 0.171575
    outer loop
      vertex 3.47231 -5.19668 10
      vertex 2.39177 -5.77425 10
      vertex 3.06147 -7.39104 0
    endloop
  endfacet
  facet normal 0.86884 -0.464412 0.171575
    outer loop
      vertex 5.77425 -2.39177 10
      vertex 5.19668 -3.47231 10
      vertex 7.39104 -3.06147 0
    endloop
  endfacet
  facet normal -0.868842 -0.464408 0.171576
    outer loop
      vertex -5.19668 -3.47231 10
      vertex -7.39104 -3.06147 0
      vertex -6.65176 -4.44456 0
    endloop
  endfacet
  facet normal -0.761553 -0.62498 0.171576
    outer loop
      vertex -5.19668 -3.47231 10
      vertex -6.65176 -4.44456 0
      vertex -4.41942 -4.41942 10
    endloop
  endfacet
  facet normal -0.94275 -0.285979 0.171575
    outer loop
      vertex -6.12991 -1.21931 10
      vertex -7.39104 -3.06147 0
      vertex -5.77425 -2.39177 10
    endloop
  endfacet
  facet normal -0.995185 -0.0980186 0
    outer loop
      vertex 4 0 0
      vertex 3.92314 0.780361 16
      vertex 3.92314 0.780361 0
    endloop
  endfacet
  facet normal -0.995185 -0.0980186 0
    outer loop
      vertex 3.92314 0.780361 16
      vertex 4 0 0
      vertex 4 0 16
    endloop
  endfacet
  facet normal 0.995185 -0.0980186 0
    outer loop
      vertex -4 0 16
      vertex -3.92314 0.780361 0
      vertex -3.92314 0.780361 16
    endloop
  endfacet
  facet normal 0.995185 -0.0980186 0
    outer loop
      vertex -3.92314 0.780361 0
      vertex -4 0 16
      vertex -4 0 0
    endloop
  endfacet
  facet normal -0.0980186 -0.995185 0
    outer loop
      vertex 0 4 0
      vertex 0.780361 3.92314 16
      vertex 0 4 16
    endloop
  endfacet
  facet normal -0.0980186 -0.995185 -0
    outer loop
      vertex 0.780361 3.92314 16
      vertex 0 4 0
      vertex 0.780361 3.92314 0
    endloop
  endfacet
  facet normal -0.63439 -0.773013 0
    outer loop
      vertex 2.22228 3.32588 0
      vertex 2.82843 2.82843 16
      vertex 2.22228 3.32588 16
    endloop
  endfacet
  facet normal -0.63439 -0.773013 -0
    outer loop
      vertex 2.82843 2.82843 16
      vertex 2.22228 3.32588 0
      vertex 2.82843 2.82843 0
    endloop
  endfacet
  facet normal 0.63439 -0.773013 0
    outer loop
      vertex -2.82843 2.82843 0
      vertex -2.22228 3.32588 16
      vertex -2.82843 2.82843 16
    endloop
  endfacet
  facet normal 0.63439 -0.773013 0
    outer loop
      vertex -2.22228 3.32588 16
      vertex -2.82843 2.82843 0
      vertex -2.22228 3.32588 0
    endloop
  endfacet
  facet normal 0.290282 -0.956941 0
    outer loop
      vertex -1.53073 3.69552 0
      vertex -0.780361 3.92314 16
      vertex -1.53073 3.69552 16
    endloop
  endfacet
  facet normal 0.290282 -0.956941 0
    outer loop
      vertex -0.780361 3.92314 16
      vertex -1.53073 3.69552 0
      vertex -0.780361 3.92314 0
    endloop
  endfacet
  facet normal -0.773013 0.63439 0
    outer loop
      vertex 2.82843 -2.82843 0
      vertex 3.32588 -2.22228 16
      vertex 3.32588 -2.22228 0
    endloop
  endfacet
  facet normal -0.773013 0.63439 0
    outer loop
      vertex 3.32588 -2.22228 16
      vertex 2.82843 -2.82843 0
      vertex 2.82843 -2.82843 16
    endloop
  endfacet
  facet normal -0.881922 -0.471396 0
    outer loop
      vertex 3.69552 1.53073 0
      vertex 3.32588 2.22228 16
      vertex 3.32588 2.22228 0
    endloop
  endfacet
  facet normal -0.881922 -0.471396 0
    outer loop
      vertex 3.32588 2.22228 16
      vertex 3.69552 1.53073 0
      vertex 3.69552 1.53073 16
    endloop
  endfacet
  facet normal -0.956941 -0.290282 0
    outer loop
      vertex 3.92314 0.780361 0
      vertex 3.69552 1.53073 16
      vertex 3.69552 1.53073 0
    endloop
  endfacet
  facet normal -0.956941 -0.290282 0
    outer loop
      vertex 3.69552 1.53073 16
      vertex 3.92314 0.780361 0
      vertex 3.92314 0.780361 16
    endloop
  endfacet
  facet normal -0.773013 -0.63439 0
    outer loop
      vertex 3.32588 2.22228 0
      vertex 2.82843 2.82843 16
      vertex 2.82843 2.82843 0
    endloop
  endfacet
  facet normal -0.773013 -0.63439 0
    outer loop
      vertex 2.82843 2.82843 16
      vertex 3.32588 2.22228 0
      vertex 3.32588 2.22228 16
    endloop
  endfacet
  facet normal -0.290282 -0.956941 0
    outer loop
      vertex 0.780361 3.92314 0
      vertex 1.53073 3.69552 16
      vertex 0.780361 3.92314 16
    endloop
  endfacet
  facet normal -0.290282 -0.956941 -0
    outer loop
      vertex 1.53073 3.69552 16
      vertex 0.780361 3.92314 0
      vertex 1.53073 3.69552 0
    endloop
  endfacet
  facet normal -0.471396 -0.881922 0
    outer loop
      vertex 1.53073 3.69552 0
      vertex 2.22228 3.32588 16
      vertex 1.53073 3.69552 16
    endloop
  endfacet
  facet normal -0.471396 -0.881922 -0
    outer loop
      vertex 2.22228 3.32588 16
      vertex 1.53073 3.69552 0
      vertex 2.22228 3.32588 0
    endloop
  endfacet
  facet normal 0.881922 -0.471396 0
    outer loop
      vertex -3.69552 1.53073 16
      vertex -3.32588 2.22228 0
      vertex -3.32588 2.22228 16
    endloop
  endfacet
  facet normal 0.881922 -0.471396 0
    outer loop
      vertex -3.32588 2.22228 0
      vertex -3.69552 1.53073 16
      vertex -3.69552 1.53073 0
    endloop
  endfacet
  facet normal 0.773013 -0.63439 0
    outer loop
      vertex -3.32588 2.22228 16
      vertex -2.82843 2.82843 0
      vertex -2.82843 2.82843 16
    endloop
  endfacet
  facet normal 0.773013 -0.63439 0
    outer loop
      vertex -2.82843 2.82843 0
      vertex -3.32588 2.22228 16
      vertex -3.32588 2.22228 0
    endloop
  endfacet
  facet normal 0.956941 -0.290282 0
    outer loop
      vertex -3.92314 0.780361 16
      vertex -3.69552 1.53073 0
      vertex -3.69552 1.53073 16
    endloop
  endfacet
  facet normal 0.956941 -0.290282 0
    outer loop
      vertex -3.69552 1.53073 0
      vertex -3.92314 0.780361 16
      vertex -3.92314 0.780361 0
    endloop
  endfacet
  facet normal 0.471396 -0.881922 0
    outer loop
      vertex -2.22228 3.32588 0
      vertex -1.53073 3.69552 16
      vertex -2.22228 3.32588 16
    endloop
  endfacet
  facet normal 0.471396 -0.881922 0
    outer loop
      vertex -1.53073 3.69552 16
      vertex -2.22228 3.32588 0
      vertex -1.53073 3.69552 0
    endloop
  endfacet
  facet normal 0.0980186 -0.995185 0
    outer loop
      vertex -0.780361 3.92314 0
      vertex 0 4 16
      vertex -0.780361 3.92314 16
    endloop
  endfacet
  facet normal 0.0980186 -0.995185 0
    outer loop
      vertex 0 4 16
      vertex -0.780361 3.92314 0
      vertex 0 4 0
    endloop
  endfacet
  facet normal -0.995185 0.0980186 0
    outer loop
      vertex 3.92314 -0.780361 0
      vertex 4 0 16
      vertex 4 0 0
    endloop
  endfacet
  facet normal -0.995185 0.0980186 0
    outer loop
      vertex 4 0 16
      vertex 3.92314 -0.780361 0
      vertex 3.92314 -0.780361 16
    endloop
  endfacet
  facet normal -0.471396 0.881922 0
    outer loop
      vertex 2.22228 -3.32588 0
      vertex 1.53073 -3.69552 16
      vertex 2.22228 -3.32588 16
    endloop
  endfacet
  facet normal -0.471396 0.881922 0
    outer loop
      vertex 1.53073 -3.69552 16
      vertex 2.22228 -3.32588 0
      vertex 1.53073 -3.69552 0
    endloop
  endfacet
  facet normal -0.0980186 0.995185 0
    outer loop
      vertex 0.780361 -3.92314 0
      vertex 0 -4 16
      vertex 0.780361 -3.92314 16
    endloop
  endfacet
  facet normal -0.0980186 0.995185 0
    outer loop
      vertex 0 -4 16
      vertex 0.780361 -3.92314 0
      vertex 0 -4 0
    endloop
  endfacet
  facet normal -0.63439 0.773013 0
    outer loop
      vertex 2.82843 -2.82843 0
      vertex 2.22228 -3.32588 16
      vertex 2.82843 -2.82843 16
    endloop
  endfacet
  facet normal -0.63439 0.773013 0
    outer loop
      vertex 2.22228 -3.32588 16
      vertex 2.82843 -2.82843 0
      vertex 2.22228 -3.32588 0
    endloop
  endfacet
  facet normal 0.63439 0.773013 -0
    outer loop
      vertex -2.22228 -3.32588 0
      vertex -2.82843 -2.82843 16
      vertex -2.22228 -3.32588 16
    endloop
  endfacet
  facet normal 0.63439 0.773013 0
    outer loop
      vertex -2.82843 -2.82843 16
      vertex -2.22228 -3.32588 0
      vertex -2.82843 -2.82843 0
    endloop
  endfacet
  facet normal 0.290282 0.956941 -0
    outer loop
      vertex -0.780361 -3.92314 0
      vertex -1.53073 -3.69552 16
      vertex -0.780361 -3.92314 16
    endloop
  endfacet
  facet normal 0.290282 0.956941 0
    outer loop
      vertex -1.53073 -3.69552 16
      vertex -0.780361 -3.92314 0
      vertex -1.53073 -3.69552 0
    endloop
  endfacet
  facet normal 0.881922 0.471396 0
    outer loop
      vertex -3.32588 -2.22228 16
      vertex -3.69552 -1.53073 0
      vertex -3.69552 -1.53073 16
    endloop
  endfacet
  facet normal 0.881922 0.471396 0
    outer loop
      vertex -3.69552 -1.53073 0
      vertex -3.32588 -2.22228 16
      vertex -3.32588 -2.22228 0
    endloop
  endfacet
  facet normal 0.995185 0.0980186 0
    outer loop
      vertex -3.92314 -0.780361 16
      vertex -4 0 0
      vertex -4 0 16
    endloop
  endfacet
  facet normal 0.995185 0.0980186 0
    outer loop
      vertex -4 0 0
      vertex -3.92314 -0.780361 16
      vertex -3.92314 -0.780361 0
    endloop
  endfacet
  facet normal -0.290282 0.956941 0
    outer loop
      vertex 1.53073 -3.69552 0
      vertex 0.780361 -3.92314 16
      vertex 1.53073 -3.69552 16
    endloop
  endfacet
  facet normal -0.290282 0.956941 0
    outer loop
      vertex 0.780361 -3.92314 16
      vertex 1.53073 -3.69552 0
      vertex 0.780361 -3.92314 0
    endloop
  endfacet
  facet normal -0.956941 0.290282 0
    outer loop
      vertex 3.69552 -1.53073 0
      vertex 3.92314 -0.780361 16
      vertex 3.92314 -0.780361 0
    endloop
  endfacet
  facet normal -0.956941 0.290282 0
    outer loop
      vertex 3.92314 -0.780361 16
      vertex 3.69552 -1.53073 0
      vertex 3.69552 -1.53073 16
    endloop
  endfacet
  facet normal -0.881922 0.471396 0
    outer loop
      vertex 3.32588 -2.22228 0
      vertex 3.69552 -1.53073 16
      vertex 3.69552 -1.53073 0
    endloop
  endfacet
  facet normal -0.881922 0.471396 0
    outer loop
      vertex 3.69552 -1.53073 16
      vertex 3.32588 -2.22228 0
      vertex 3.32588 -2.22228 16
    endloop
  endfacet
  facet normal 0.471396 0.881922 -0
    outer loop
      vertex -1.53073 -3.69552 0
      vertex -2.22228 -3.32588 16
      vertex -1.53073 -3.69552 16
    endloop
  endfacet
  facet normal 0.471396 0.881922 0
    outer loop
      vertex -2.22228 -3.32588 16
      vertex -1.53073 -3.69552 0
      vertex -2.22228 -3.32588 0
    endloop
  endfacet
  facet normal 0.0980186 0.995185 -0
    outer loop
      vertex 0 -4 0
      vertex -0.780361 -3.92314 16
      vertex 0 -4 16
    endloop
  endfacet
  facet normal 0.0980186 0.995185 0
    outer loop
      vertex -0.780361 -3.92314 16
      vertex 0 -4 0
      vertex -0.780361 -3.92314 0
    endloop
  endfacet
  facet normal 0.773013 0.63439 0
    outer loop
      vertex -2.82843 -2.82843 16
      vertex -3.32588 -2.22228 0
      vertex -3.32588 -2.22228 16
    endloop
  endfacet
  facet normal 0.773013 0.63439 0
    outer loop
      vertex -3.32588 -2.22228 0
      vertex -2.82843 -2.82843 16
      vertex -2.82843 -2.82843 0
    endloop
  endfacet
  facet normal 0.956941 0.290282 0
    outer loop
      vertex -3.69552 -1.53073 16
      vertex -3.92314 -0.780361 0
      vertex -3.92314 -0.780361 16
    endloop
  endfacet
  facet normal 0.956941 0.290282 0
    outer loop
      vertex -3.92314 -0.780361 0
      vertex -3.69552 -1.53073 16
      vertex -3.69552 -1.53073 0
    endloop
  endfacet
  facet normal -0.0936107 0.9505 0.29629
    outer loop
      vertex 1.02167 -5.14626 20
      vertex 0 -4 16
      vertex 0 -5.24688 20
    endloop
  endfacet
  facet normal -0.9505 -0.0936107 0.29629
    outer loop
      vertex 5.24688 0 20
      vertex 5.14626 1.02167 20
      vertex 4 0 16
    endloop
  endfacet
  facet normal -0.950604 -0.092623 0.296264
    outer loop
      vertex 3.92314 0.780361 16
      vertex 5.14626 1.02167 20
      vertex 5.14607 1.02362 20
    endloop
  endfacet
  facet normal -0.950498 -0.0936173 0.296291
    outer loop
      vertex 5.14626 1.02167 20
      vertex 3.92314 0.780361 16
      vertex 4 0 16
    endloop
  endfacet
  facet normal -0.950498 0.0936173 0.296291
    outer loop
      vertex 3.92314 -0.780361 16
      vertex 5.14626 -1.02167 20
      vertex 4 0 16
    endloop
  endfacet
  facet normal -0.950604 0.092623 0.296264
    outer loop
      vertex 5.14626 -1.02167 20
      vertex 3.92314 -0.780361 16
      vertex 5.14607 -1.02362 20
    endloop
  endfacet
  facet normal 0.950498 0.0936173 0.296291
    outer loop
      vertex -5.14626 -1.02167 20
      vertex -3.92314 -0.780361 16
      vertex -4 0 16
    endloop
  endfacet
  facet normal 0.950604 0.092623 0.296264
    outer loop
      vertex -3.92314 -0.780361 16
      vertex -5.14626 -1.02167 20
      vertex -5.14607 -1.02362 20
    endloop
  endfacet
  facet normal 0.950604 -0.092623 0.296264
    outer loop
      vertex -5.14626 1.02167 20
      vertex -3.92314 0.780361 16
      vertex -5.14607 1.02362 20
    endloop
  endfacet
  facet normal 0.950498 -0.0936173 0.296291
    outer loop
      vertex -3.92314 0.780361 16
      vertex -5.14626 1.02167 20
      vertex -4 0 16
    endloop
  endfacet
  facet normal -0.913971 0.277252 0.29629
    outer loop
      vertex 4.84749 -2.00789 20
      vertex 5.1455 -1.02549 20
      vertex 3.69552 -1.53073 16
    endloop
  endfacet
  facet normal -0.738304 0.605905 0.296289
    outer loop
      vertex 2.82843 -2.82843 16
      vertex 3.71135 -3.70859 20
      vertex 3.32588 -2.22228 16
    endloop
  endfacet
  facet normal -0.740091 0.603758 0.296211
    outer loop
      vertex 3.71135 -3.70859 20
      vertex 2.82843 -2.82843 16
      vertex 3.71011 -3.71011 20
    endloop
  endfacet
  facet normal -0.9505 0.0936107 0.29629
    outer loop
      vertex 5.14626 -1.02167 20
      vertex 5.24688 0 20
      vertex 4 0 16
    endloop
  endfacet
  facet normal -0.454249 0.840117 0.296414
    outer loop
      vertex 2.22228 -3.32588 16
      vertex 2.91329 -4.36355 20
      vertex 2.91501 -4.36262 20
    endloop
  endfacet
  facet normal -0.450229 0.842322 0.296291
    outer loop
      vertex 2.91329 -4.36355 20
      vertex 2.22228 -3.32588 16
      vertex 1.53073 -3.69552 16
    endloop
  endfacet
  facet normal -0.603758 0.740091 0.296211
    outer loop
      vertex 2.82843 -2.82843 16
      vertex 3.70859 -3.71135 20
      vertex 3.71011 -3.71011 20
    endloop
  endfacet
  facet normal -0.605905 0.738304 0.296289
    outer loop
      vertex 3.70859 -3.71135 20
      vertex 2.82843 -2.82843 16
      vertex 2.22228 -3.32588 16
    endloop
  endfacet
  facet normal 0.0936173 0.950498 0.296291
    outer loop
      vertex -0.780361 -3.92314 16
      vertex -1.02167 -5.14626 20
      vertex 0 -4 16
    endloop
  endfacet
  facet normal 0.092623 0.950604 0.296264
    outer loop
      vertex -1.02167 -5.14626 20
      vertex -0.780361 -3.92314 16
      vertex -1.02362 -5.14607 20
    endloop
  endfacet
  facet normal 0.913609 0.27848 0.296256
    outer loop
      vertex -5.1455 -1.02549 20
      vertex -3.92314 -0.780361 16
      vertex -5.14607 -1.02362 20
    endloop
  endfacet
  facet normal 0.913972 0.277248 0.296291
    outer loop
      vertex -3.92314 -0.780361 16
      vertex -5.1455 -1.02549 20
      vertex -3.69552 -1.53073 16
    endloop
  endfacet
  facet normal 0.450229 0.842322 0.296291
    outer loop
      vertex -2.22228 -3.32588 16
      vertex -2.91329 -4.36355 20
      vertex -1.53073 -3.69552 16
    endloop
  endfacet
  facet normal 0.454249 0.840117 0.296414
    outer loop
      vertex -2.91329 -4.36355 20
      vertex -2.22228 -3.32588 16
      vertex -2.91501 -4.36262 20
    endloop
  endfacet
  facet normal 0.0936107 0.9505 0.29629
    outer loop
      vertex 0 -5.24688 20
      vertex 0 -4 16
      vertex -1.02167 -5.14626 20
    endloop
  endfacet
  facet normal 0.092623 -0.950604 0.296264
    outer loop
      vertex -0.780361 3.92314 16
      vertex -1.02167 5.14626 20
      vertex -1.02362 5.14607 20
    endloop
  endfacet
  facet normal 0.0936173 -0.950498 0.296291
    outer loop
      vertex -1.02167 5.14626 20
      vertex -0.780361 3.92314 16
      vertex 0 4 16
    endloop
  endfacet
  facet normal 0.913609 -0.27848 0.296256
    outer loop
      vertex -3.92314 0.780361 16
      vertex -5.1455 1.02549 20
      vertex -5.14607 1.02362 20
    endloop
  endfacet
  facet normal 0.913972 -0.277248 0.296291
    outer loop
      vertex -5.1455 1.02549 20
      vertex -3.92314 0.780361 16
      vertex -3.69552 1.53073 16
    endloop
  endfacet
  facet normal -0.913609 0.27848 0.296256
    outer loop
      vertex 3.92314 -0.780361 16
      vertex 5.1455 -1.02549 20
      vertex 5.14607 -1.02362 20
    endloop
  endfacet
  facet normal -0.913972 0.277248 0.296291
    outer loop
      vertex 5.1455 -1.02549 20
      vertex 3.92314 -0.780361 16
      vertex 3.69552 -1.53073 16
    endloop
  endfacet
  facet normal -0.842324 0.450225 0.29629
    outer loop
      vertex 4.36355 -2.91329 20
      vertex 4.84749 -2.00789 20
      vertex 3.69552 -1.53073 16
    endloop
  endfacet
  facet normal -0.450225 0.842324 0.29629
    outer loop
      vertex 2.00789 -4.84749 20
      vertex 2.91329 -4.36355 20
      vertex 1.53073 -3.69552 16
    endloop
  endfacet
  facet normal -0.605906 0.738303 0.296289
    outer loop
      vertex 2.91501 -4.36262 20
      vertex 3.70859 -3.71135 20
      vertex 2.22228 -3.32588 16
    endloop
  endfacet
  facet normal -0.277252 0.913971 0.29629
    outer loop
      vertex 2.00789 -4.84749 20
      vertex 1.53073 -3.69552 16
      vertex 1.02549 -5.1455 20
    endloop
  endfacet
  facet normal 0.738303 0.605906 0.296289
    outer loop
      vertex -3.71135 -3.70859 20
      vertex -3.32588 -2.22228 16
      vertex -4.36262 -2.91501 20
    endloop
  endfacet
  facet normal -0.450225 -0.842324 0.29629
    outer loop
      vertex 2.91329 4.36355 20
      vertex 2.00789 4.84749 20
      vertex 1.53073 3.69552 16
    endloop
  endfacet
  facet normal 0.740091 -0.603758 0.296211
    outer loop
      vertex -3.71135 3.70859 20
      vertex -2.82843 2.82843 16
      vertex -3.71011 3.71011 20
    endloop
  endfacet
  facet normal 0.738304 -0.605905 0.296289
    outer loop
      vertex -2.82843 2.82843 16
      vertex -3.71135 3.70859 20
      vertex -3.32588 2.22228 16
    endloop
  endfacet
  facet normal 0.738303 -0.605906 0.296289
    outer loop
      vertex -3.32588 2.22228 16
      vertex -3.71135 3.70859 20
      vertex -4.36262 2.91501 20
    endloop
  endfacet
  facet normal 0.277248 -0.913972 0.296291
    outer loop
      vertex -0.780361 3.92314 16
      vertex -1.02549 5.1455 20
      vertex -1.53073 3.69552 16
    endloop
  endfacet
  facet normal 0.27848 -0.913609 0.296256
    outer loop
      vertex -1.02549 5.1455 20
      vertex -0.780361 3.92314 16
      vertex -1.02362 5.14607 20
    endloop
  endfacet
  facet normal 0.9505 -0.0936107 0.29629
    outer loop
      vertex -4 0 16
      vertex -5.14626 1.02167 20
      vertex -5.24688 0 20
    endloop
  endfacet
  facet normal 0.9505 0.0936107 0.29629
    outer loop
      vertex -5.14626 -1.02167 20
      vertex -4 0 16
      vertex -5.24688 0 20
    endloop
  endfacet
  facet normal -0.842322 0.450229 0.296291
    outer loop
      vertex 3.32588 -2.22228 16
      vertex 4.36355 -2.91329 20
      vertex 3.69552 -1.53073 16
    endloop
  endfacet
  facet normal -0.840117 0.454249 0.296414
    outer loop
      vertex 4.36355 -2.91329 20
      vertex 3.32588 -2.22228 16
      vertex 4.36262 -2.91501 20
    endloop
  endfacet
  facet normal -0.738303 0.605906 0.296289
    outer loop
      vertex 3.71135 -3.70859 20
      vertex 4.36262 -2.91501 20
      vertex 3.32588 -2.22228 16
    endloop
  endfacet
  facet normal -0.277248 0.913972 0.296291
    outer loop
      vertex 0.780361 -3.92314 16
      vertex 1.02549 -5.1455 20
      vertex 1.53073 -3.69552 16
    endloop
  endfacet
  facet normal -0.27848 0.913609 0.296256
    outer loop
      vertex 1.02549 -5.1455 20
      vertex 0.780361 -3.92314 16
      vertex 1.02362 -5.14607 20
    endloop
  endfacet
  facet normal -0.092623 0.950604 0.296264
    outer loop
      vertex 0.780361 -3.92314 16
      vertex 1.02167 -5.14626 20
      vertex 1.02362 -5.14607 20
    endloop
  endfacet
  facet normal -0.0936173 0.950498 0.296291
    outer loop
      vertex 1.02167 -5.14626 20
      vertex 0.780361 -3.92314 16
      vertex 0 -4 16
    endloop
  endfacet
  facet normal 0.738304 0.605905 0.296289
    outer loop
      vertex -3.71135 -3.70859 20
      vertex -2.82843 -2.82843 16
      vertex -3.32588 -2.22228 16
    endloop
  endfacet
  facet normal 0.740091 0.603758 0.296211
    outer loop
      vertex -2.82843 -2.82843 16
      vertex -3.71135 -3.70859 20
      vertex -3.71011 -3.71011 20
    endloop
  endfacet
  facet normal 0.842322 0.450229 0.296291
    outer loop
      vertex -4.36355 -2.91329 20
      vertex -3.32588 -2.22228 16
      vertex -3.69552 -1.53073 16
    endloop
  endfacet
  facet normal 0.840117 0.454249 0.296414
    outer loop
      vertex -3.32588 -2.22228 16
      vertex -4.36355 -2.91329 20
      vertex -4.36262 -2.91501 20
    endloop
  endfacet
  facet normal -0.450229 -0.842322 0.296291
    outer loop
      vertex 2.22228 3.32588 16
      vertex 2.91329 4.36355 20
      vertex 1.53073 3.69552 16
    endloop
  endfacet
  facet normal -0.454249 -0.840117 0.296414
    outer loop
      vertex 2.91329 4.36355 20
      vertex 2.22228 3.32588 16
      vertex 2.91501 4.36262 20
    endloop
  endfacet
  facet normal -0.0936107 -0.9505 0.29629
    outer loop
      vertex 1.02167 5.14626 20
      vertex 0 5.24688 20
      vertex 0 4 16
    endloop
  endfacet
  facet normal 0.0936107 -0.9505 0.29629
    outer loop
      vertex 0 4 16
      vertex 0 5.24688 20
      vertex -1.02167 5.14626 20
    endloop
  endfacet
  facet normal -0.605906 -0.738303 0.296289
    outer loop
      vertex 3.70859 3.71135 20
      vertex 2.91501 4.36262 20
      vertex 2.22228 3.32588 16
    endloop
  endfacet
  facet normal -0.840117 -0.454249 0.296414
    outer loop
      vertex 3.32588 2.22228 16
      vertex 4.36355 2.91329 20
      vertex 4.36262 2.91501 20
    endloop
  endfacet
  facet normal -0.842322 -0.450229 0.296291
    outer loop
      vertex 4.36355 2.91329 20
      vertex 3.32588 2.22228 16
      vertex 3.69552 1.53073 16
    endloop
  endfacet
  facet normal -0.738303 -0.605906 0.296289
    outer loop
      vertex 4.36262 2.91501 20
      vertex 3.71135 3.70859 20
      vertex 3.32588 2.22228 16
    endloop
  endfacet
  facet normal -0.842324 -0.450225 0.29629
    outer loop
      vertex 4.84749 2.00789 20
      vertex 4.36355 2.91329 20
      vertex 3.69552 1.53073 16
    endloop
  endfacet
  facet normal 0.454249 -0.840117 0.296414
    outer loop
      vertex -2.22228 3.32588 16
      vertex -2.91329 4.36355 20
      vertex -2.91501 4.36262 20
    endloop
  endfacet
  facet normal 0.450229 -0.842322 0.296291
    outer loop
      vertex -2.91329 4.36355 20
      vertex -2.22228 3.32588 16
      vertex -1.53073 3.69552 16
    endloop
  endfacet
  facet normal 0.27848 0.913609 0.296256
    outer loop
      vertex -0.780361 -3.92314 16
      vertex -1.02549 -5.1455 20
      vertex -1.02362 -5.14607 20
    endloop
  endfacet
  facet normal 0.277248 0.913972 0.296291
    outer loop
      vertex -1.02549 -5.1455 20
      vertex -0.780361 -3.92314 16
      vertex -1.53073 -3.69552 16
    endloop
  endfacet
  facet normal 0.605905 0.738304 0.296289
    outer loop
      vertex -2.82843 -2.82843 16
      vertex -3.70859 -3.71135 20
      vertex -2.22228 -3.32588 16
    endloop
  endfacet
  facet normal 0.603758 0.740091 0.296211
    outer loop
      vertex -3.70859 -3.71135 20
      vertex -2.82843 -2.82843 16
      vertex -3.71011 -3.71011 20
    endloop
  endfacet
  facet normal 0.605906 0.738303 0.296289
    outer loop
      vertex -2.91501 -4.36262 20
      vertex -2.22228 -3.32588 16
      vertex -3.70859 -3.71135 20
    endloop
  endfacet
  facet normal 0.842324 0.450225 0.29629
    outer loop
      vertex -4.36355 -2.91329 20
      vertex -3.69552 -1.53073 16
      vertex -4.84749 -2.00789 20
    endloop
  endfacet
  facet normal 0.913971 0.277252 0.29629
    outer loop
      vertex -4.84749 -2.00789 20
      vertex -3.69552 -1.53073 16
      vertex -5.1455 -1.02549 20
    endloop
  endfacet
  facet normal -0.277252 -0.913971 0.29629
    outer loop
      vertex 1.53073 3.69552 16
      vertex 2.00789 4.84749 20
      vertex 1.02549 5.1455 20
    endloop
  endfacet
  facet normal -0.605905 -0.738304 0.296289
    outer loop
      vertex 2.82843 2.82843 16
      vertex 3.70859 3.71135 20
      vertex 2.22228 3.32588 16
    endloop
  endfacet
  facet normal -0.603758 -0.740091 0.296211
    outer loop
      vertex 3.70859 3.71135 20
      vertex 2.82843 2.82843 16
      vertex 3.71011 3.71011 20
    endloop
  endfacet
  facet normal -0.740091 -0.603758 0.296211
    outer loop
      vertex 2.82843 2.82843 16
      vertex 3.71135 3.70859 20
      vertex 3.71011 3.71011 20
    endloop
  endfacet
  facet normal -0.738304 -0.605905 0.296289
    outer loop
      vertex 3.71135 3.70859 20
      vertex 2.82843 2.82843 16
      vertex 3.32588 2.22228 16
    endloop
  endfacet
  facet normal -0.913971 -0.277252 0.29629
    outer loop
      vertex 5.1455 1.02549 20
      vertex 4.84749 2.00789 20
      vertex 3.69552 1.53073 16
    endloop
  endfacet
  facet normal -0.913972 -0.277248 0.296291
    outer loop
      vertex 3.92314 0.780361 16
      vertex 5.1455 1.02549 20
      vertex 3.69552 1.53073 16
    endloop
  endfacet
  facet normal -0.913609 -0.27848 0.296256
    outer loop
      vertex 5.1455 1.02549 20
      vertex 3.92314 0.780361 16
      vertex 5.14607 1.02362 20
    endloop
  endfacet
  facet normal 0.842324 -0.450225 0.29629
    outer loop
      vertex -3.69552 1.53073 16
      vertex -4.36355 2.91329 20
      vertex -4.84749 2.00789 20
    endloop
  endfacet
  facet normal 0.913971 -0.277252 0.29629
    outer loop
      vertex -3.69552 1.53073 16
      vertex -4.84749 2.00789 20
      vertex -5.1455 1.02549 20
    endloop
  endfacet
  facet normal 0.605906 -0.738303 0.296289
    outer loop
      vertex -2.22228 3.32588 16
      vertex -2.91501 4.36262 20
      vertex -3.70859 3.71135 20
    endloop
  endfacet
  facet normal 0.603758 -0.740091 0.296211
    outer loop
      vertex -2.82843 2.82843 16
      vertex -3.70859 3.71135 20
      vertex -3.71011 3.71011 20
    endloop
  endfacet
  facet normal 0.605905 -0.738304 0.296289
    outer loop
      vertex -3.70859 3.71135 20
      vertex -2.82843 2.82843 16
      vertex -2.22228 3.32588 16
    endloop
  endfacet
  facet normal 0.450225 -0.842324 0.29629
    outer loop
      vertex -1.53073 3.69552 16
      vertex -2.00789 4.84749 20
      vertex -2.91329 4.36355 20
    endloop
  endfacet
  facet normal 0.277252 -0.913971 0.29629
    outer loop
      vertex -1.53073 3.69552 16
      vertex -1.02549 5.1455 20
      vertex -2.00789 4.84749 20
    endloop
  endfacet
  facet normal 0.277252 0.913971 0.29629
    outer loop
      vertex -1.02549 -5.1455 20
      vertex -1.53073 -3.69552 16
      vertex -2.00789 -4.84749 20
    endloop
  endfacet
  facet normal 0.450225 0.842324 0.29629
    outer loop
      vertex -2.00789 -4.84749 20
      vertex -1.53073 -3.69552 16
      vertex -2.91329 -4.36355 20
    endloop
  endfacet
  facet normal -0.0936173 -0.950498 0.296291
    outer loop
      vertex 0.780361 3.92314 16
      vertex 1.02167 5.14626 20
      vertex 0 4 16
    endloop
  endfacet
  facet normal -0.092623 -0.950604 0.296264
    outer loop
      vertex 1.02167 5.14626 20
      vertex 0.780361 3.92314 16
      vertex 1.02362 5.14607 20
    endloop
  endfacet
  facet normal -0.27848 -0.913609 0.296256
    outer loop
      vertex 0.780361 3.92314 16
      vertex 1.02549 5.1455 20
      vertex 1.02362 5.14607 20
    endloop
  endfacet
  facet normal -0.277248 -0.913972 0.296291
    outer loop
      vertex 1.02549 5.1455 20
      vertex 0.780361 3.92314 16
      vertex 1.53073 3.69552 16
    endloop
  endfacet
  facet normal 0.840117 -0.454249 0.296414
    outer loop
      vertex -4.36355 2.91329 20
      vertex -3.32588 2.22228 16
      vertex -4.36262 2.91501 20
    endloop
  endfacet
  facet normal 0.842322 -0.450229 0.296291
    outer loop
      vertex -3.32588 2.22228 16
      vertex -4.36355 2.91329 20
      vertex -3.69552 1.53073 16
    endloop
  endfacet
endsolid OpenSCAD_Model
